<?xml version="1.0" standalone="no"?><!DOCTYPE svg PUBLIC "-//W3C//DTD SVG 1.1//EN" "http://www.w3.org/Graphics/SVG/1.1/DTD/svg11.dtd"><svg t="1777653288986" class="icon" viewBox="0 0 1024 1024" version="1.1" xmlns="http://www.w3.org/2000/svg" p-id="5537" xmlns:xlink="http://www.w3.org/1999/xlink" width="200" height="200"><path d="M602.24 512l275.2-274.56a64 64 0 1 0-90.88-90.88L512 421.76l-274.56-275.2a64 64 0 0 0-90.88 90.88L421.76 512l-275.2 274.56a64 64 0 0 0 0 90.88 64 64 0 0 0 90.88 0L512 602.24l274.56 275.2a64 64 0 0 0 90.88 0 64 64 0 0 0 0-90.88z" fill="#A9ADAD" p-id="5538"></path></svg>