<?xml version="1.0" standalone="no"?><!DOCTYPE svg PUBLIC "-//W3C//DTD SVG 1.1//EN" "http://www.w3.org/Graphics/SVG/1.1/DTD/svg11.dtd"><svg t="1777735568886" class="icon" viewBox="0 0 1063 1024" version="1.1" xmlns="http://www.w3.org/2000/svg" p-id="12598" xmlns:xlink="http://www.w3.org/1999/xlink" width="207.6171875" height="200"><path d="M793.954462 432.049231l-179.2-172.504616-161.516308 155.569231 179.2 172.504616 161.476923-155.569231z" fill="#DE2500" p-id="12599"></path><path d="M718.966154 359.857231l-40.369231 38.912a58.683077 58.683077 0 0 1-80.777846 0l-63.803077-61.44 80.738462-77.784616 104.211692 100.312616z" fill="#FF3E3E" p-id="12600"></path><path d="M199.286154 405.582769a21.464615 21.464615 0 0 1 4.174769-34.225231c113.309538-64.393846 278.528-35.761231 395.145846 76.484924 116.578462 112.246154 146.274462 271.36 79.241846 380.416a23.079385 23.079385 0 0 1-35.209846 3.977846C564.972308 757.76 276.873846 480.256 199.286154 405.582769z" fill="#FA3F00" p-id="12601"></path><path d="M140.603077 875.874462a8.979692 8.979692 0 0 0 0.827077 12.091076 9.846154 9.846154 0 0 0 12.603077 0.827077l363.795692-264.270769-102.793846-98.973538-274.471385 350.326154z" fill="#B4CEF6" p-id="12602"></path><path d="M346.860308 612.430769l14.217846 13.745231a34.579692 34.579692 0 0 1 0 50.215385l-219.608616 211.456a8.979692 8.979692 0 0 1-0.866461-12.130462l206.257231-263.246769z" fill="#D5E4FD" p-id="12603"></path><path d="M198.892308 405.188923a21.464615 21.464615 0 0 1 4.568615-33.831385c92.593231-52.617846 219.884308-43.126154 326.931692 23.355077 69.041231 103.108923 78.887385 225.673846 24.064 314.761847a23.079385 23.079385 0 0 1-35.170461 3.938461c-53.169231-51.003077-205.036308-197.159385-320.393846-308.224z" fill="#FF5252" p-id="12604"></path><path d="M428.977231 402.589538a17.211077 17.211077 0 0 0 6.695384-18.392615 17.998769 17.998769 0 0 0-15.163077-12.996923c-36.745846-4.726154-91.293538-7.443692-135.60123 8.349538a15.872 15.872 0 0 0-5.632 26.427077c13.233231 12.996923 31.822769 30.916923 45.252923 43.835077 9.767385 9.452308 25.284923 10.436923 36.312615 2.402462l68.135385-49.624616z" fill="#FFFFFF" fill-opacity=".1" p-id="12605"></path><path d="M565.366154 234.732308a31.192615 31.192615 0 0 1-0.118154-45.13477c58.092308-55.099077 216.457846-180.775385 349.577846-60.258461 123.392 129.614769-5.750154 280.969846-62.621538 336.541538a34.107077 34.107077 0 0 1-46.828308-0.118153c-53.563077-51.436308-186.525538-179.475692-240.009846-230.99077z" fill="#FA3E00" p-id="12606"></path><path d="M565.366154 234.732308a31.192615 31.192615 0 0 1-0.118154-45.13477c53.563077-50.806154 192.512-161.713231 318.227692-84.007384 81.723077 122.486154-33.083077 256.275692-85.779692 307.830154a34.107077 34.107077 0 0 1-46.828308-0.118154l-185.501538-178.530462z" fill="#FF5252" p-id="12607"></path><path d="M737.28 197.671385a33.240615 33.240615 0 0 0 9.373538-47.222154 36.194462 36.194462 0 0 0-49.033846-9.058462l-55.020307 35.918769a33.240615 33.240615 0 0 0-9.373539 47.261539 36.194462 36.194462 0 0 0 49.033846 9.058461l55.020308-35.958153z" fill="#FFFFFF" fill-opacity=".3" p-id="12608"></path></svg>